# xmcd
#
# Track frame offsets: 
#        151
#        19685
#        38627
#        52917
#        68567
#        91111
#        108421
#        124253
#        141513
#        153929
#        170473
#        184009
#
# Disc length: 2518 seconds
#
# Revision: 0
# Processed by: cddbd v1.5.2PL0 Copyright (c) Steve Scherf et al.
# Submitted via: ExactAudioCopy v0.95b3
#
DISCID=9409d40c
DTITLE=Pine Mountain Railroad - Heartache and Hope
DYEAR=2008
DGENRE=Bluegrass
TTITLE0=Laura Jean
TTITLE1=Beyond The Rain
TTITLE2=White Lightning Strikes
TTITLE3=Old Bryson Station
TTITLE4=Sinner's Lament
TTITLE5=Powder Brown
TTITLE6=Fly Away
TTITLE7=Hazel Creek Train
TTITLE8=Butter On The Biscuit
TTITLE9=Dine With The King
TTITLE10=Brother Noah
TTITLE11=Tennessee Pride (Grand Ole Opry Theme)
EXTD=
EXTT0=
EXTT1=
EXTT2=
EXTT3=
EXTT4=
EXTT5=
EXTT6=
EXTT7=
EXTT8=
EXTT9=
EXTT10=
EXTT11=
PLAYORDER=
